# xmcd
#
# Track frame offsets: 
#        150
#        14912
#        28915
#        41880
#        54875
#        70520
#        83270
#        93822
#        106662
#        118945
#        131955
#        144655
#        155575
#        168010
#        181560
#        192997
#
# Disc length: 2771 seconds
#
# Revision: 0
# Processed by: cddbd v1.5.2PL0 Copyright (c) Steve Scherf et al.
# Submitted via: ExactAudioCopy v0.99pb4
#
DISCID=cd0ad110
DTITLE=Elmore James - Elmore James 21Blues Giants
DYEAR=1900
DGENRE=Blues
TTITLE0=I Believe
TTITLE1=Please Find My Way
TTITLE2=Hand In Hand
TTITLE3=Sinful Woman
TTITLE4=I Held My Baby Last Night
TTITLE5=Early In The Morning
TTITLE6=Hawaian Boogie
TTITLE7=Make A Little Love
TTITLE8=Make My Dreams Come True
TTITLE9=Sho'nuff I Do
TTITLE10=Standing At The Crossroads
TTITLE11=No Love In My Heart
TTITLE12=Blues Before Sunrise
TTITLE13=Goodbye(Baby)
TTITLE14=So Mean To Me
TTITLE15=Wild About You Baby
EXTD=
EXTT0=
EXTT1=
EXTT2=
EXTT3=
EXTT4=
EXTT5=
EXTT6=
EXTT7=
EXTT8=
EXTT9=
EXTT10=
EXTT11=
EXTT12=
EXTT13=
EXTT14=
EXTT15=
PLAYORDER=
